<?xml version="1.0" encoding="UTF-8" ?>
<!DOCTYPE svg PUBLIC "-//W3C//DTD SVG 1.1//EN" "http://www.w3.org/Graphics/SVG/1.1/DTD/svg11.dtd">
<svg width="1462pt" height="620pt" viewBox="0 0 1462 620" version="1.1" xmlns="http://www.w3.org/2000/svg">
<path fill="#fefefe" d=" M 0.00 0.00 L 1462.00 0.00 L 1462.00 620.00 L 0.00 620.00 L 0.00 0.00 Z" />
<path fill="#0affff" d=" M 1215.86 42.77 C 1219.69 63.21 1222.41 83.86 1225.78 104.38 C 1229.55 127.57 1232.79 150.87 1236.87 173.99 C 1239.16 175.45 1242.35 174.87 1245.01 175.40 C 1303.11 181.42 1361.23 187.23 1419.30 193.44 C 1410.30 195.17 1401.10 195.50 1392.03 196.63 C 1340.27 202.00 1288.50 207.23 1236.76 212.70 C 1230.79 277.03 1224.81 341.36 1218.83 405.68 C 1217.71 415.13 1217.52 424.72 1215.86 434.08 C 1209.81 360.28 1204.51 286.40 1198.61 212.58 C 991.41 207.04 784.21 201.27 577.02 195.60 C 553.98 194.87 530.92 194.60 507.89 193.46 C 738.13 187.09 968.37 180.85 1198.61 174.53 C 1204.49 130.63 1209.89 86.66 1215.86 42.77 Z" />
<path fill="#070707" d=" M 260.09 146.37 C 288.45 146.47 316.81 146.37 345.17 146.42 C 338.13 189.87 330.79 233.27 323.61 276.70 C 320.79 276.81 317.96 276.86 315.14 276.86 C 321.88 236.16 328.71 195.47 335.37 154.76 C 312.17 154.69 288.96 154.82 265.75 154.70 C 264.28 157.98 262.97 161.34 261.69 164.70 C 225.72 149.08 182.57 152.23 148.65 171.62 C 123.95 185.90 103.30 207.91 92.64 234.57 C 83.97 256.41 81.51 281.36 88.87 303.93 C 90.95 311.27 94.71 317.92 98.23 324.63 C 89.86 324.71 81.49 324.62 73.12 324.68 C 62.65 379.72 52.06 434.74 41.64 489.78 C 64.26 489.79 86.89 489.86 109.52 489.75 C 111.97 485.62 114.56 481.57 117.14 477.52 C 125.49 480.75 133.77 484.28 142.50 486.37 C 166.20 492.10 191.21 490.62 214.67 484.46 C 211.57 488.03 208.74 491.93 205.20 495.06 C 177.09 501.14 147.07 498.91 120.40 487.94 C 118.26 491.35 116.12 494.77 113.96 498.19 C 86.49 498.15 59.02 498.22 31.55 498.15 C 43.06 437.53 54.64 376.91 66.27 316.31 C 72.35 316.32 78.43 316.34 84.50 316.27 C 74.41 293.33 73.80 266.95 80.93 243.08 C 89.39 212.94 109.99 187.11 135.79 169.79 C 170.70 145.92 217.10 139.76 256.98 153.85 C 257.99 151.35 259.03 148.86 260.09 146.37 Z" />
<path fill="#fefefe" d=" M 1197.56 193.91 C 1203.50 187.60 1209.64 181.46 1215.95 175.52 C 1222.18 181.53 1228.43 187.55 1234.26 193.96 C 1228.25 200.13 1222.17 206.22 1215.99 212.21 C 1209.68 206.28 1203.63 200.08 1197.56 193.91 Z" />
<path fill="#070707" d=" M 1208.89 186.81 C 1213.59 186.78 1218.29 186.78 1222.99 186.81 C 1222.98 191.52 1223.01 196.22 1222.98 200.93 C 1218.27 200.94 1213.57 200.94 1208.87 200.92 C 1208.84 196.22 1208.81 191.51 1208.89 186.81 Z" />
<path fill="#0affff" d=" M 169.80 199.78 C 189.41 189.84 212.54 187.22 233.94 192.06 C 244.48 194.36 253.75 200.05 263.44 204.50 C 267.93 206.56 273.34 208.01 278.11 206.05 C 284.26 202.82 286.52 195.74 289.20 189.81 C 290.83 189.80 292.45 189.79 294.08 189.78 C 290.65 211.93 286.77 234.01 283.17 256.14 C 282.08 262.00 281.49 267.96 279.96 273.74 C 277.76 273.72 275.55 273.70 273.35 273.71 C 273.35 257.82 270.36 241.25 260.77 228.19 C 252.13 216.75 240.11 207.08 225.76 204.23 C 211.47 201.47 195.70 203.08 183.51 211.54 C 173.47 218.47 165.04 229.33 164.74 241.97 C 164.16 249.80 168.08 257.14 173.30 262.69 C 183.32 273.97 197.33 280.29 210.09 287.84 C 227.42 297.27 244.95 306.99 259.28 320.75 C 268.48 329.60 275.06 341.28 276.86 354.00 C 279.72 374.71 272.96 395.97 260.59 412.58 C 248.83 428.15 232.54 440.10 214.55 447.51 C 197.01 454.35 177.66 456.65 159.02 454.04 C 146.88 452.36 135.57 447.42 124.44 442.54 C 118.70 440.11 111.97 438.48 105.98 441.06 C 99.11 443.57 94.11 449.20 89.84 454.89 C 87.88 454.88 85.92 454.88 83.96 454.88 C 89.76 423.13 95.96 391.45 102.06 359.75 C 104.08 359.71 106.10 359.69 108.12 359.70 C 108.75 380.63 112.67 402.91 126.67 419.31 C 134.21 427.72 143.25 435.14 153.99 439.01 C 168.69 444.35 185.45 443.99 199.87 437.92 C 209.46 433.55 217.85 426.44 223.58 417.59 C 229.70 408.16 231.53 395.62 226.83 385.22 C 222.74 375.63 214.39 368.77 205.94 363.11 C 188.90 351.81 170.07 343.47 153.38 331.62 C 139.15 322.18 126.68 308.85 121.75 292.18 C 117.21 276.88 119.76 260.26 125.75 245.73 C 134.28 225.72 150.72 209.82 169.80 199.78 Z" />
<path fill="#070707" d=" M 292.25 307.07 C 316.75 306.64 341.26 306.96 365.77 306.90 C 365.43 308.20 365.12 309.51 364.83 310.82 C 359.30 311.24 352.95 311.55 348.96 315.95 C 345.16 319.63 344.23 325.02 342.73 329.85 C 338.47 345.80 334.31 361.78 330.31 377.80 C 349.52 365.24 368.49 352.31 387.61 339.62 C 394.48 334.90 401.78 330.64 407.71 324.71 C 409.68 322.61 411.92 320.17 411.79 317.09 C 411.74 314.54 409.48 312.55 407.14 311.97 C 403.87 311.20 400.47 311.27 397.15 310.92 C 397.50 309.58 397.83 308.24 398.15 306.90 C 417.33 306.85 436.52 306.86 455.71 306.90 C 455.38 308.22 455.07 309.55 454.77 310.88 C 450.38 311.59 445.81 311.84 441.73 313.80 C 438.00 315.58 434.53 317.85 431.04 320.07 C 409.10 334.27 387.46 348.93 365.62 363.29 C 375.76 382.75 386.44 401.92 396.75 421.29 C 401.38 429.69 405.68 438.59 412.77 445.25 C 416.22 448.77 421.12 450.13 425.90 450.52 C 425.56 451.80 425.24 453.09 424.96 454.40 C 399.36 454.42 373.75 454.45 348.15 454.38 C 348.47 453.05 348.79 451.72 349.11 450.40 C 353.04 449.65 357.70 449.87 360.69 446.75 C 362.63 445.11 362.70 442.32 362.16 440.03 C 361.15 435.45 358.96 431.24 356.85 427.09 C 349.24 412.85 341.63 398.61 333.98 384.40 C 331.75 386.03 329.08 387.24 327.31 389.38 C 324.30 400.11 321.69 410.96 318.82 421.74 C 317.21 429.08 314.32 436.37 314.60 443.97 C 316.78 450.09 324.27 450.22 329.70 450.51 C 329.23 451.81 328.83 453.14 328.39 454.46 C 303.65 454.33 278.91 454.52 254.17 454.36 C 254.49 453.03 254.81 451.72 255.13 450.40 C 261.38 450.48 268.31 450.55 273.48 446.49 C 278.65 442.28 279.49 435.26 281.37 429.28 C 289.78 397.05 298.13 364.79 306.47 332.53 C 307.57 327.49 309.38 322.41 308.87 317.19 C 307.94 314.08 304.79 312.61 302.05 311.43 C 302.60 314.77 302.98 318.14 302.97 321.54 C 300.88 318.07 298.90 314.55 296.71 311.15 C 294.93 311.03 293.16 310.94 291.39 310.86 C 291.68 309.59 291.96 308.33 292.25 307.07 Z" />
<path fill="#070707" d=" M 462.49 307.08 C 486.08 306.63 509.70 306.96 533.30 306.90 C 532.93 308.23 532.57 309.56 532.27 310.91 C 527.26 311.04 521.37 310.57 517.54 314.48 C 515.42 316.24 515.95 319.26 516.21 321.66 C 516.99 326.90 518.60 331.97 519.91 337.10 C 524.50 353.09 529.01 369.11 533.69 385.08 C 547.85 368.77 561.84 352.31 575.84 335.86 C 579.74 331.00 583.92 326.21 586.61 320.55 C 587.79 318.55 587.63 315.75 585.68 314.29 C 582.09 311.45 577.24 311.50 572.92 310.84 C 573.30 309.52 573.68 308.21 574.02 306.88 C 589.03 306.89 604.04 306.82 619.04 306.92 C 618.67 308.23 618.32 309.55 618.00 310.88 C 613.14 311.71 608.15 313.02 604.30 316.29 C 598.65 320.95 593.82 326.52 588.97 331.99 C 571.62 352.31 554.12 372.51 536.82 392.86 C 534.77 396.88 534.38 401.54 533.03 405.82 C 530.21 417.57 526.40 429.11 524.55 441.06 C 523.66 444.99 527.04 448.37 530.51 449.51 C 535.20 450.93 540.16 450.22 544.98 450.39 C 544.64 451.72 544.31 453.05 544.02 454.40 C 516.43 454.42 488.85 454.45 461.26 454.38 C 461.58 453.04 461.90 451.71 462.23 450.39 C 468.10 450.27 474.25 450.99 479.79 448.59 C 484.27 446.80 487.48 442.64 488.84 438.10 C 492.34 426.90 494.93 415.43 498.01 404.11 C 498.52 401.97 499.41 399.72 498.58 397.55 C 492.57 376.86 486.59 356.17 480.57 335.49 C 478.42 328.87 476.65 322.00 473.08 315.97 C 470.77 311.95 465.80 311.28 461.64 310.80 C 461.91 309.55 462.20 308.31 462.49 307.08 Z" />
<path fill="#070707" d=" M 625.52 307.04 C 651.76 306.66 678.03 306.96 704.29 306.89 C 703.92 308.24 703.56 309.60 703.26 310.97 C 696.44 310.93 688.66 310.36 683.12 315.12 C 678.21 319.15 677.33 325.77 675.56 331.48 C 667.36 362.76 659.31 394.07 651.18 425.37 C 650.06 430.50 648.30 435.67 648.64 440.98 C 649.94 445.92 655.85 445.93 659.97 445.99 C 673.61 446.02 688.31 447.71 700.71 440.73 C 715.70 432.36 724.60 416.97 732.92 402.56 C 734.36 402.59 735.80 402.62 737.26 402.65 C 731.03 419.95 724.73 437.21 718.30 454.44 C 674.68 454.36 631.05 454.49 587.42 454.37 C 587.72 453.04 588.04 451.72 588.37 450.41 C 594.76 450.48 601.99 450.58 607.11 446.11 C 612.17 441.73 612.85 434.68 614.83 428.68 C 623.54 394.88 632.51 361.13 641.02 327.28 C 641.69 323.14 643.92 317.96 640.48 314.49 C 636.36 310.29 630.00 311.09 624.66 310.90 C 624.94 309.61 625.22 308.32 625.52 307.04 Z" />
<path fill="#070707" d=" M 774.43 307.06 C 800.14 306.63 825.87 306.99 851.60 306.88 C 851.32 308.19 851.05 309.51 850.78 310.83 C 844.41 310.98 837.23 310.65 832.08 315.06 C 826.93 319.31 826.17 326.30 824.24 332.27 C 815.99 363.99 807.78 395.73 799.55 427.45 C 798.39 432.27 797.02 437.08 796.66 442.05 C 796.38 444.78 798.46 447.07 800.62 448.42 C 804.77 450.85 809.74 450.31 814.34 450.40 C 813.99 451.74 813.69 453.10 813.37 454.46 C 787.70 454.35 762.03 454.47 736.36 454.40 C 736.66 453.06 736.98 451.72 737.31 450.39 C 743.51 450.47 750.40 450.57 755.55 446.55 C 760.76 442.40 761.63 435.40 763.54 429.45 C 771.73 398.00 779.86 366.53 788.04 335.07 C 789.32 329.76 790.92 324.46 791.25 318.97 C 791.39 315.73 788.65 313.26 785.88 312.13 C 781.95 310.64 777.66 311.01 773.56 310.89 C 773.83 309.61 774.12 308.33 774.43 307.06 Z" />
<path fill="#070707" d=" M 859.97 306.89 C 876.97 306.86 893.98 306.86 910.99 306.89 C 912.51 306.59 912.97 308.39 913.64 309.36 C 929.50 338.97 945.23 368.65 961.32 398.13 C 966.88 377.00 972.32 355.83 977.79 334.67 C 978.96 329.03 980.82 322.88 978.67 317.27 C 975.67 311.59 968.41 311.20 962.76 310.84 C 963.01 309.58 963.28 308.32 963.57 307.07 C 979.83 306.65 996.12 306.93 1012.40 306.93 C 1012.07 308.23 1011.76 309.54 1011.46 310.86 C 1005.88 312.05 999.59 312.12 995.07 316.07 C 989.53 320.78 987.91 328.18 985.88 334.82 C 975.13 375.79 964.72 416.85 953.88 457.80 C 952.66 457.79 951.46 457.79 950.27 457.79 C 927.61 416.95 905.11 376.04 882.46 335.20 C 874.45 364.83 867.01 394.63 859.21 424.33 C 857.73 430.65 855.17 437.62 858.00 443.93 C 861.50 449.68 868.88 450.65 875.04 450.47 C 874.68 451.77 874.34 453.07 874.04 454.40 C 856.63 454.43 839.21 454.43 821.79 454.40 C 822.06 453.08 822.35 451.76 822.64 450.45 C 829.27 450.11 836.54 449.35 841.68 444.68 C 846.57 440.24 848.73 433.73 850.41 427.53 C 859.15 393.92 867.83 360.30 876.57 326.69 C 877.03 325.39 876.92 324.00 876.15 322.85 C 874.35 319.49 872.49 315.98 869.46 313.57 C 866.43 311.28 862.43 311.44 858.86 310.88 C 859.24 309.55 859.62 308.22 859.97 306.89 Z" />
<path fill="#070707" d=" M 1022.11 306.88 C 1063.25 306.89 1104.38 306.83 1145.52 306.91 C 1141.86 321.46 1138.01 335.95 1134.28 350.48 C 1132.90 350.49 1131.54 350.54 1130.20 350.61 C 1130.27 343.18 1130.78 335.32 1127.57 328.40 C 1123.72 320.85 1115.22 316.85 1107.08 316.09 C 1096.82 315.03 1086.48 315.55 1076.19 315.38 C 1071.01 335.39 1065.74 355.39 1060.66 375.43 C 1069.02 375.82 1077.90 374.02 1084.32 368.32 C 1092.42 360.90 1097.04 350.66 1101.00 340.62 C 1102.33 340.61 1103.67 340.62 1105.03 340.64 C 1098.47 366.40 1091.73 392.11 1085.05 417.84 C 1083.69 417.87 1082.34 417.90 1081.00 417.94 C 1082.02 408.51 1083.04 397.88 1077.35 389.65 C 1073.09 383.81 1065.09 383.98 1058.62 383.54 C 1054.91 396.72 1051.73 410.04 1048.20 423.26 C 1046.91 428.77 1045.15 434.26 1044.94 439.96 C 1045.11 443.96 1049.37 446.00 1052.92 446.06 C 1064.61 446.53 1076.62 446.57 1087.84 442.75 C 1104.98 437.23 1117.88 423.15 1126.06 407.55 C 1127.06 407.54 1129.06 407.52 1130.06 407.51 C 1123.92 423.20 1117.64 438.85 1111.27 454.46 C 1068.81 454.34 1026.34 454.48 983.87 454.39 C 984.23 453.05 984.61 451.72 984.93 450.37 C 991.21 450.53 998.20 450.51 1003.36 446.36 C 1008.06 442.51 1009.03 436.20 1010.74 430.72 C 1019.80 396.09 1028.81 361.44 1037.68 326.76 C 1038.47 322.90 1040.15 318.21 1037.24 314.81 C 1033.16 310.31 1026.51 311.09 1021.03 310.86 C 1021.40 309.54 1021.76 308.21 1022.11 306.88 Z" />
<path fill="#070707" d=" M 714.25 501.25 C 723.76 489.96 744.15 489.90 752.96 502.08 C 756.14 506.42 757.62 511.71 758.59 516.93 C 754.65 517.97 750.72 519.05 746.75 519.95 C 745.73 516.45 744.51 512.78 741.68 510.31 C 736.46 505.25 727.32 506.40 722.67 511.67 C 717.38 517.34 716.37 525.52 716.21 532.95 C 716.16 541.49 716.92 550.72 722.16 557.82 C 725.73 562.80 732.74 564.56 738.36 562.29 C 741.70 560.93 745.26 559.09 747.16 555.91 C 747.41 552.62 747.23 549.31 747.25 546.02 C 742.66 545.98 738.08 546.01 733.51 546.00 C 733.49 541.40 733.46 536.81 733.52 532.21 C 742.13 532.23 750.74 532.19 759.35 532.23 C 759.41 542.50 759.38 552.76 759.39 563.03 C 759.74 565.09 757.97 566.43 756.72 567.76 C 749.40 574.59 739.06 578.82 728.99 577.00 C 721.61 575.84 715.13 571.08 711.23 564.80 C 704.90 554.80 703.35 542.57 703.89 530.97 C 704.36 520.38 707.19 509.42 714.25 501.25 Z" />
<path fill="#070707" d=" M 267.28 494.31 C 273.25 494.27 279.22 494.30 285.20 494.30 C 288.90 512.57 292.08 530.96 296.02 549.19 C 299.85 530.96 303.09 512.60 306.69 494.32 C 312.69 494.28 318.69 494.28 324.70 494.31 C 324.72 521.55 324.70 548.79 324.71 576.03 C 321.00 576.11 317.29 576.09 313.58 576.05 C 313.51 554.97 313.61 533.88 313.53 512.80 C 309.32 533.80 305.72 554.93 301.79 575.99 C 297.90 576.13 294.02 576.13 290.13 575.99 C 286.24 554.93 282.66 533.81 278.49 512.82 C 278.41 533.89 278.50 554.97 278.44 576.05 C 274.71 576.09 270.99 576.11 267.27 576.03 C 267.27 548.79 267.25 521.55 267.28 494.31 Z" />
<path fill="#070707" d=" M 353.67 494.84 C 357.60 493.55 362.28 494.62 366.50 494.32 C 374.35 521.57 382.42 548.75 390.19 576.02 C 385.86 576.12 381.52 576.11 377.18 576.04 C 375.44 569.85 373.78 563.63 371.93 557.47 C 364.05 557.49 356.17 557.50 348.29 557.46 C 346.65 563.61 345.00 569.75 343.46 575.93 C 339.19 576.17 334.91 576.10 330.65 576.03 C 338.26 548.95 345.85 521.86 353.67 494.84 Z" />
<path fill="#070707" d=" M 396.70 494.29 C 406.10 494.33 415.50 494.21 424.89 494.37 C 430.07 494.59 435.96 495.22 439.52 499.47 C 445.94 506.96 446.41 517.97 443.84 527.10 C 442.01 533.63 436.41 538.51 429.87 540.02 C 437.27 546.36 440.75 555.69 444.77 564.29 C 446.52 568.19 448.33 572.08 450.03 576.02 C 445.29 576.13 440.56 576.08 435.83 576.07 C 431.33 567.22 427.22 558.18 422.55 549.43 C 421.05 546.82 419.50 543.79 416.52 542.66 C 413.97 541.85 411.26 541.99 408.63 541.87 C 408.60 553.25 408.62 564.63 408.62 576.02 C 404.63 576.12 400.64 576.10 396.66 576.03 C 396.66 548.78 396.58 521.54 396.70 494.29 Z" />
<path fill="#070707" d=" M 456.74 494.30 C 460.72 494.30 464.71 494.28 468.69 494.31 C 468.78 506.22 468.51 518.13 468.84 530.04 C 477.24 518.34 484.83 506.06 493.11 494.27 C 498.45 494.32 503.79 494.27 509.14 494.32 C 501.74 504.94 494.23 515.49 486.81 526.10 C 494.52 542.79 502.58 559.33 510.29 576.03 C 505.14 576.13 500.00 576.07 494.86 576.08 C 489.25 563.38 484.09 550.48 478.38 537.83 C 475.21 542.28 471.90 546.64 468.89 551.20 C 468.40 559.45 468.84 567.76 468.69 576.03 C 464.70 576.11 460.71 576.09 456.72 576.06 C 456.71 548.80 456.68 521.55 456.74 494.30 Z" />
<path fill="#070707" d=" M 516.65 494.27 C 531.34 494.33 546.02 494.26 560.71 494.30 C 560.73 498.90 560.73 503.50 560.72 508.11 C 550.01 508.20 539.30 508.10 528.59 508.16 C 528.55 514.18 528.54 520.21 528.59 526.23 C 538.53 526.26 548.46 526.25 558.40 526.24 C 558.49 530.82 558.45 535.41 558.44 540.00 C 548.49 540.05 538.54 539.99 528.59 540.02 C 528.55 547.43 528.54 554.83 528.59 562.24 C 539.66 562.29 550.72 562.25 561.79 562.26 C 561.81 566.85 561.82 571.44 561.80 576.04 C 546.73 576.11 531.66 576.12 516.59 576.03 C 516.59 548.78 516.48 521.52 516.65 494.27 Z" />
<path fill="#070707" d=" M 567.70 494.29 C 583.44 494.30 599.17 494.27 614.90 494.31 C 614.95 498.91 614.93 503.51 614.91 508.11 C 609.05 508.17 603.19 508.12 597.34 508.16 C 597.33 530.79 597.36 553.42 597.32 576.06 C 593.32 576.09 589.33 576.11 585.34 576.03 C 585.34 553.40 585.36 530.77 585.33 508.14 C 579.45 508.13 573.58 508.16 567.70 508.12 C 567.66 503.51 567.66 498.90 567.70 494.29 Z" />
<path fill="#070707" d=" M 622.39 494.30 C 626.36 494.28 630.33 494.30 634.31 494.29 C 634.41 521.54 634.35 548.80 634.34 576.05 C 630.35 576.09 626.36 576.12 622.37 576.01 C 622.38 548.77 622.35 521.53 622.39 494.30 Z" />
<path fill="#070707" d=" M 646.02 494.29 C 649.90 494.29 653.78 494.28 657.67 494.30 C 665.75 512.33 673.66 530.45 681.89 548.41 C 682.15 530.38 681.91 512.34 682.01 494.31 C 685.72 494.30 689.44 494.29 693.16 494.30 C 693.22 521.55 693.19 548.80 693.17 576.06 C 689.14 576.09 685.11 576.10 681.08 576.04 C 673.10 558.48 665.42 540.78 657.26 523.30 C 657.03 540.87 657.25 558.45 657.15 576.03 C 653.43 576.10 649.71 576.10 646.00 576.04 C 645.97 548.79 645.93 521.54 646.02 494.29 Z" />
<path fill="#070707" d=" M 793.63 494.27 C 803.74 494.44 813.89 493.93 823.98 494.84 C 830.41 495.46 835.05 501.02 837.12 506.76 C 839.58 513.88 839.66 521.73 838.06 529.05 C 836.42 535.35 832.58 542.03 825.90 543.87 C 819.27 545.64 812.34 545.15 805.56 545.23 C 805.50 555.48 805.53 565.74 805.54 576.00 C 801.54 576.12 797.55 576.09 793.56 576.05 C 793.57 548.79 793.44 521.53 793.63 494.27 Z" />
<path fill="#070707" d=" M 842.96 494.30 C 847.27 494.29 851.59 494.30 855.91 494.28 C 861.05 514.19 865.68 534.24 870.93 554.12 C 876.17 534.30 880.60 514.25 885.48 494.33 C 889.72 494.27 893.96 494.28 898.21 494.30 C 891.31 521.59 884.10 548.80 877.02 576.04 C 872.73 576.10 868.44 576.09 864.15 576.06 C 857.09 548.80 849.96 521.56 842.96 494.30 Z" />
<path fill="#070707" d=" M 900.11 494.29 C 915.85 494.29 931.59 494.29 947.33 494.29 C 947.41 498.90 947.38 503.51 947.36 508.12 C 941.50 508.17 935.63 508.12 929.77 508.16 C 929.73 530.78 929.78 553.41 929.75 576.03 C 925.76 576.11 921.77 576.10 917.78 576.03 C 917.74 553.41 917.79 530.79 917.76 508.17 C 911.88 508.11 906.00 508.18 900.13 508.12 C 900.12 503.51 900.13 498.90 900.11 494.29 Z" />
<path fill="#070707" d=" M 1032.64 494.28 C 1048.36 494.31 1064.08 494.28 1079.81 494.30 C 1079.82 498.90 1079.81 503.51 1079.82 508.12 C 1073.96 508.17 1068.10 508.12 1062.24 508.16 C 1062.21 530.79 1062.26 553.42 1062.21 576.05 C 1058.22 576.09 1054.23 576.11 1050.25 576.04 C 1050.23 553.42 1050.26 530.79 1050.23 508.17 C 1044.35 508.12 1038.47 508.15 1032.59 508.13 C 1032.55 503.51 1032.52 498.90 1032.64 494.28 Z" />
<path fill="#070707" d=" M 1087.64 494.27 C 1097.13 494.52 1106.67 493.83 1116.14 494.73 C 1124.43 495.49 1130.34 502.55 1133.25 509.83 C 1137.80 521.27 1137.95 533.96 1136.86 546.07 C 1135.57 555.51 1132.89 565.92 1124.91 571.94 C 1118.95 576.49 1111.08 576.11 1104.00 576.09 C 1098.52 576.07 1093.04 576.10 1087.57 576.05 C 1087.58 548.79 1087.45 521.53 1087.64 494.27 Z" />
<path fill="#070707" d=" M 992.51 494.96 C 996.49 494.95 1000.48 494.91 1004.47 494.95 C 1004.49 517.36 1004.48 539.77 1004.47 562.19 C 1014.42 562.36 1024.38 562.21 1034.33 562.27 C 1034.36 566.85 1034.37 571.44 1034.34 576.03 C 1020.40 576.12 1006.46 576.12 992.52 576.03 C 992.47 549.01 992.47 521.98 992.51 494.96 Z" />
<path fill="#fefefe" d=" M 408.60 508.18 C 414.64 508.21 420.73 507.87 426.75 508.59 C 431.06 509.30 433.01 514.06 432.85 518.00 C 433.01 521.94 431.66 527.06 427.30 528.14 C 421.14 529.23 414.83 528.71 408.61 528.83 C 408.63 521.94 408.63 515.06 408.60 508.18 Z" />
<path fill="#fefefe" d=" M 805.55 508.12 C 810.22 508.23 814.94 507.93 819.56 508.73 C 823.92 509.33 826.25 513.97 826.56 517.96 C 827.02 522.47 825.72 528.03 821.28 530.14 C 816.23 531.83 810.79 531.14 805.56 531.30 C 805.50 523.57 805.53 515.85 805.55 508.12 Z" />
<path fill="#fefefe" d=" M 1099.53 508.13 C 1106.26 508.69 1114.73 506.48 1119.85 512.16 C 1124.93 518.54 1124.68 527.27 1124.96 535.00 C 1124.74 542.67 1124.94 551.03 1120.77 557.78 C 1115.78 564.28 1106.58 561.68 1099.54 562.26 C 1099.50 544.22 1099.53 526.17 1099.53 508.13 Z" />
<path fill="#fefefe" d=" M 351.97 543.70 C 354.63 533.82 356.98 523.84 359.99 514.07 C 363.00 523.85 365.42 533.80 368.09 543.68 C 362.71 543.71 357.34 543.71 351.97 543.70 Z" />
<path fill="#070707" d=" M 1147.53 560.40 C 1151.32 560.38 1155.11 560.40 1158.91 560.36 C 1158.97 565.59 1158.95 570.81 1158.93 576.04 C 1155.12 576.10 1151.31 576.12 1147.51 575.99 C 1147.52 570.79 1147.50 565.59 1147.53 560.40 Z" />
<path fill="#070707" d=" M 945.91 560.42 C 949.70 560.38 953.50 560.37 957.30 560.41 C 957.37 565.62 957.33 570.84 957.31 576.06 C 953.50 576.09 949.70 576.11 945.91 576.04 C 945.86 570.83 945.87 565.62 945.91 560.42 Z" />
</svg>
